<?xml version="1.0" encoding="UTF-8" standalone="no"?>
<!DOCTYPE svg PUBLIC "-//W3C//DTD SVG 1.1//EN"
 "http://www.w3.org/Graphics/SVG/1.1/DTD/svg11.dtd">
<!-- Generated by graphviz version 2.43.0 (0)
 -->
<!-- Title: G Pages: 1 -->
<svg width="350pt" height="227pt"
 viewBox="0.00 0.00 350.00 227.00" xmlns="http://www.w3.org/2000/svg" xmlns:xlink="http://www.w3.org/1999/xlink">
<g id="graph0" class="graph" transform="scale(1 1) rotate(0) translate(4 223)">
<title>G</title>
<polygon fill="white" stroke="transparent" points="-4,4 -4,-223 346,-223 346,4 -4,4"/>
<g id="clust1" class="cluster">
<title>cluster_1</title>
<polygon fill="none" stroke="green" points="64,-136 64,-211 278,-211 278,-136 64,-136"/>
<text text-anchor="middle" x="171" y="-195.8" font-family="Times,serif" font-size="14.00">root</text>
</g>
<!-- A1 -->
<g id="node1" class="node">
<title>A1</title>
<polygon fill="none" stroke="black" points="126,-180 72,-180 72,-144 126,-144 126,-180"/>
<text text-anchor="middle" x="99" y="-158.3" font-family="Times,serif" font-size="14.00">A1</text>
</g>
<!-- B1 -->
<g id="node4" class="node">
<title>B1</title>
<polygon fill="none" stroke="black" points="54,-108 0,-108 0,-72 54,-72 54,-108"/>
<text text-anchor="middle" x="27" y="-86.3" font-family="Times,serif" font-size="14.00">B1</text>
</g>
<!-- A1&#45;&gt;B1 -->
<g id="edge1" class="edge">
<title>A1&#45;&gt;B1</title>
<path fill="none" stroke="black" d="M81.2,-143.7C72.4,-135.14 61.62,-124.66 52,-115.3"/>
<polygon fill="black" stroke="black" points="54.2,-112.57 44.59,-108.1 49.32,-117.58 54.2,-112.57"/>
</g>
<!-- B2 -->
<g id="node5" class="node">
<title>B2</title>
<polygon fill="none" stroke="black" points="126,-108 72,-108 72,-72 126,-72 126,-108"/>
<text text-anchor="middle" x="99" y="-86.3" font-family="Times,serif" font-size="14.00">B2</text>
</g>
<!-- A1&#45;&gt;B2 -->
<g id="edge2" class="edge">
<title>A1&#45;&gt;B2</title>
<path fill="none" stroke="black" d="M99,-143.7C99,-135.98 99,-126.71 99,-118.11"/>
<polygon fill="black" stroke="black" points="102.5,-118.1 99,-108.1 95.5,-118.1 102.5,-118.1"/>
</g>
<!-- A2 -->
<g id="node2" class="node">
<title>A2</title>
<polygon fill="none" stroke="black" points="198,-180 144,-180 144,-144 198,-144 198,-180"/>
<text text-anchor="middle" x="171" y="-158.3" font-family="Times,serif" font-size="14.00">A2</text>
</g>
<!-- B3 -->
<g id="node6" class="node">
<title>B3</title>
<polygon fill="none" stroke="black" points="198,-108 144,-108 144,-72 198,-72 198,-108"/>
<text text-anchor="middle" x="171" y="-86.3" font-family="Times,serif" font-size="14.00">B3</text>
</g>
<!-- A2&#45;&gt;B3 -->
<g id="edge3" class="edge">
<title>A2&#45;&gt;B3</title>
<path fill="none" stroke="black" d="M171,-143.7C171,-135.98 171,-126.71 171,-118.11"/>
<polygon fill="black" stroke="black" points="174.5,-118.1 171,-108.1 167.5,-118.1 174.5,-118.1"/>
</g>
<!-- B4 -->
<g id="node7" class="node">
<title>B4</title>
<polygon fill="none" stroke="black" points="270,-108 216,-108 216,-72 270,-72 270,-108"/>
<text text-anchor="middle" x="243" y="-86.3" font-family="Times,serif" font-size="14.00">B4</text>
</g>
<!-- A2&#45;&gt;B4 -->
<g id="edge4" class="edge">
<title>A2&#45;&gt;B4</title>
<path fill="none" stroke="black" d="M188.8,-143.7C197.6,-135.14 208.38,-124.66 218,-115.3"/>
<polygon fill="black" stroke="black" points="220.68,-117.58 225.41,-108.1 215.8,-112.57 220.68,-117.58"/>
</g>
<!-- C -->
<g id="node3" class="node">
<title>C</title>
<polygon fill="none" stroke="black" points="270,-180 216,-180 216,-144 270,-144 270,-180"/>
<text text-anchor="middle" x="243" y="-158.3" font-family="Times,serif" font-size="14.00">C</text>
</g>
<!-- D -->
<g id="node8" class="node">
<title>D</title>
<polygon fill="none" stroke="black" points="342,-108 288,-108 288,-72 342,-72 342,-108"/>
<text text-anchor="middle" x="315" y="-86.3" font-family="Times,serif" font-size="14.00">D</text>
</g>
<!-- C&#45;&gt;D -->
<g id="edge5" class="edge">
<title>C&#45;&gt;D</title>
<path fill="none" stroke="black" d="M260.8,-143.7C269.6,-135.14 280.38,-124.66 290,-115.3"/>
<polygon fill="black" stroke="black" points="292.68,-117.58 297.41,-108.1 287.8,-112.57 292.68,-117.58"/>
</g>
<!-- E -->
<g id="node9" class="node">
<title>E</title>
<polygon fill="none" stroke="black" points="342,-36 288,-36 288,0 342,0 342,-36"/>
<text text-anchor="middle" x="315" y="-14.3" font-family="Times,serif" font-size="14.00">E</text>
</g>
<!-- D&#45;&gt;E -->
<g id="edge6" class="edge">
<title>D&#45;&gt;E</title>
<path fill="none" stroke="black" d="M309.08,-71.7C308.29,-63.98 308.06,-54.71 308.4,-46.11"/>
<polygon fill="black" stroke="black" points="311.9,-46.32 309.1,-36.1 304.92,-45.84 311.9,-46.32"/>
</g>
<!-- E&#45;&gt;D -->
<g id="edge7" class="edge">
<title>E&#45;&gt;D</title>
<path fill="none" stroke="black" d="M320.9,-36.1C321.7,-43.79 321.94,-53.05 321.6,-61.67"/>
<polygon fill="black" stroke="black" points="318.11,-61.48 320.92,-71.7 325.09,-61.96 318.11,-61.48"/>
</g>
</g>
</svg>
