<?xml version="1.0" encoding="UTF-8" standalone="no"?>
<!DOCTYPE svg PUBLIC "-//W3C//DTD SVG 1.1//EN"
 "http://www.w3.org/Graphics/SVG/1.1/DTD/svg11.dtd">
<!-- Generated by graphviz version 2.43.0 (0)
 -->
<!-- Title: G Pages: 1 -->
<svg width="206pt" height="260pt"
 viewBox="0.00 0.00 206.00 260.00" xmlns="http://www.w3.org/2000/svg" xmlns:xlink="http://www.w3.org/1999/xlink">
<g id="graph0" class="graph" transform="scale(1 1) rotate(0) translate(4 256)">
<title>G</title>
<polygon fill="white" stroke="transparent" points="-4,4 -4,-256 202,-256 202,4 -4,4"/>
<!-- A -->
<g id="node1" class="node">
<title>A</title>
<ellipse fill="red" stroke="black" cx="99" cy="-234" rx="27" ry="18"/>
<text text-anchor="middle" x="99" y="-230.3" font-family="Times,serif" font-size="14.00">A</text>
</g>
<!-- B1 -->
<g id="node2" class="node">
<title>B1</title>
<ellipse fill="none" stroke="black" cx="27" cy="-162" rx="27" ry="18"/>
<text text-anchor="middle" x="27" y="-158.3" font-family="Times,serif" font-size="14.00">B1</text>
</g>
<!-- A&#45;&gt;B1 -->
<g id="edge1" class="edge">
<title>A&#45;&gt;B1</title>
<path fill="none" stroke="black" d="M84.43,-218.83C74.25,-208.94 60.48,-195.55 48.97,-184.36"/>
<polygon fill="black" stroke="black" points="51.41,-181.85 41.8,-177.38 46.53,-186.87 51.41,-181.85"/>
</g>
<!-- B2 -->
<g id="node3" class="node">
<title>B2</title>
<ellipse fill="none" stroke="black" cx="99" cy="-162" rx="27" ry="18"/>
<text text-anchor="middle" x="99" y="-158.3" font-family="Times,serif" font-size="14.00">B2</text>
</g>
<!-- A&#45;&gt;B2 -->
<g id="edge2" class="edge">
<title>A&#45;&gt;B2</title>
<path fill="none" stroke="black" d="M99,-215.7C99,-207.98 99,-198.71 99,-190.11"/>
<polygon fill="black" stroke="black" points="102.5,-190.1 99,-180.1 95.5,-190.1 102.5,-190.1"/>
</g>
<!-- C -->
<g id="node4" class="node">
<title>C</title>
<ellipse fill="none" stroke="black" cx="171" cy="-162" rx="27" ry="18"/>
<text text-anchor="middle" x="171" y="-158.3" font-family="Times,serif" font-size="14.00">C</text>
</g>
<!-- A&#45;&gt;C -->
<g id="edge3" class="edge">
<title>A&#45;&gt;C</title>
<path fill="none" stroke="black" d="M113.57,-218.83C123.75,-208.94 137.52,-195.55 149.03,-184.36"/>
<polygon fill="black" stroke="black" points="151.47,-186.87 156.2,-177.38 146.59,-181.85 151.47,-186.87"/>
</g>
<!-- D -->
<g id="node5" class="node">
<title>D</title>
<ellipse fill="none" stroke="black" cx="171" cy="-90" rx="27" ry="18"/>
<text text-anchor="middle" x="171" y="-86.3" font-family="Times,serif" font-size="14.00">D</text>
</g>
<!-- C&#45;&gt;D -->
<g id="edge4" class="edge">
<title>C&#45;&gt;D</title>
<path fill="none" stroke="black" d="M171,-143.7C171,-135.98 171,-126.71 171,-118.11"/>
<polygon fill="black" stroke="black" points="174.5,-118.1 171,-108.1 167.5,-118.1 174.5,-118.1"/>
</g>
<!-- E -->
<g id="node6" class="node">
<title>E</title>
<ellipse fill="none" stroke="black" cx="171" cy="-18" rx="27" ry="18"/>
<text text-anchor="middle" x="171" y="-14.3" font-family="Times,serif" font-size="14.00">E</text>
</g>
<!-- D&#45;&gt;E -->
<g id="edge5" class="edge">
<title>D&#45;&gt;E</title>
<path fill="none" stroke="black" d="M165.16,-72.41C164.3,-64.51 164.05,-54.85 164.41,-45.94"/>
<polygon fill="black" stroke="black" points="167.9,-46.18 165.12,-35.96 160.92,-45.68 167.9,-46.18"/>
</g>
<!-- E&#45;&gt;D -->
<g id="edge6" class="edge">
<title>E&#45;&gt;D</title>
<path fill="none" stroke="black" d="M176.88,-35.96C177.71,-43.83 177.95,-53.37 177.58,-62.19"/>
<polygon fill="black" stroke="black" points="174.07,-62.18 176.84,-72.41 181.06,-62.69 174.07,-62.18"/>
</g>
</g>
</svg>
